<mxfile host="65bd71144e">
    <diagram id="kEZsNk2BkMJlAQvK9qXx" name="PÃ¡gina-1">
        <mxGraphModel dx="755" dy="562" grid="1" gridSize="10" guides="1" tooltips="1" connect="1" arrows="1" fold="1" page="1" pageScale="1" pageWidth="827" pageHeight="1169" math="0" shadow="0">
            <root>
                <mxCell id="0"/>
                <mxCell id="1" parent="0"/>
                <mxCell id="yA_k6KmEbLf7JsmwDN1Y-4" value="" style="rounded=0;whiteSpace=wrap;html=1;" parent="1" vertex="1">
                    <mxGeometry x="150" y="330" width="360" height="370" as="geometry"/>
                </mxCell>
                <mxCell id="yA_k6KmEbLf7JsmwDN1Y-5" value="Lienzo como cualquier otro lienzo" style="rounded=0;whiteSpace=wrap;html=1;fontSize=22;fontStyle=0" parent="1" vertex="1">
                    <mxGeometry x="150" y="230" width="360" height="70" as="geometry"/>
                </mxCell>
                <mxCell id="yA_k6KmEbLf7JsmwDN1Y-6" value="" style="rounded=0;whiteSpace=wrap;html=1;fontSize=19;" parent="1" vertex="1">
                    <mxGeometry x="150" y="720" width="110" height="45" as="geometry"/>
                </mxCell>
                <mxCell id="yA_k6KmEbLf7JsmwDN1Y-7" value="" style="shape=waypoint;sketch=0;fillStyle=solid;size=6;pointerEvents=1;points=[];fillColor=none;resizable=0;rotatable=0;perimeter=centerPerimeter;snapToPoint=1;fontSize=19;" parent="1" vertex="1">
                    <mxGeometry x="225" y="725" width="40" height="40" as="geometry"/>
                </mxCell>
                <mxCell id="yA_k6KmEbLf7JsmwDN1Y-8" value="" style="line;strokeWidth=2;html=1;fontSize=19;" parent="1" vertex="1">
                    <mxGeometry x="165" y="740" width="80" height="10" as="geometry"/>
                </mxCell>
                <mxCell id="yA_k6KmEbLf7JsmwDN1Y-11" value="" style="rounded=1;whiteSpace=wrap;html=1;fontSize=19;" parent="1" vertex="1">
                    <mxGeometry x="280" y="720" width="180" height="50" as="geometry"/>
                </mxCell>
                <mxCell id="yA_k6KmEbLf7JsmwDN1Y-25" value="" style="rounded=0;whiteSpace=wrap;html=1;fontSize=19;fillColor=#a20025;strokeColor=#6F0000;fontColor=#ffffff;" parent="1" vertex="1">
                    <mxGeometry x="290" y="735" width="20" height="20" as="geometry"/>
                </mxCell>
                <mxCell id="yA_k6KmEbLf7JsmwDN1Y-26" value="" style="rounded=0;whiteSpace=wrap;html=1;fontSize=19;fillColor=#60a917;fontColor=#ffffff;strokeColor=#2D7600;" parent="1" vertex="1">
                    <mxGeometry x="330" y="735" width="20" height="20" as="geometry"/>
                </mxCell>
                <mxCell id="yA_k6KmEbLf7JsmwDN1Y-27" value="" style="rounded=0;whiteSpace=wrap;html=1;fontSize=19;fillColor=#008a00;fontColor=#ffffff;strokeColor=#005700;" parent="1" vertex="1">
                    <mxGeometry x="360" y="735" width="20" height="20" as="geometry"/>
                </mxCell>
                <mxCell id="yA_k6KmEbLf7JsmwDN1Y-28" value="" style="rounded=0;whiteSpace=wrap;html=1;fontSize=19;fillColor=#0050ef;fontColor=#ffffff;strokeColor=#001DBC;" parent="1" vertex="1">
                    <mxGeometry x="390" y="735" width="20" height="20" as="geometry"/>
                </mxCell>
                <mxCell id="yA_k6KmEbLf7JsmwDN1Y-29" value="" style="rounded=0;whiteSpace=wrap;html=1;fontSize=19;fillColor=#d80073;fontColor=#ffffff;strokeColor=#A50040;" parent="1" vertex="1">
                    <mxGeometry x="420" y="735" width="20" height="20" as="geometry"/>
                </mxCell>
                <mxCell id="2" value="Clear" style="rounded=0;whiteSpace=wrap;html=1;fontSize=12;" vertex="1" parent="1">
                    <mxGeometry x="470" y="730" width="40" height="30" as="geometry"/>
                </mxCell>
            </root>
        </mxGraphModel>
    </diagram>
</mxfile>